<svg id="filled_outline" height="512" viewBox="0 0 512 512" width="512" xmlns="http://www.w3.org/2000/svg" data-name="filled outline"><path d="m128 248-53.07215 46.43813a32 32 0 0 0 -10.92785 24.08245v65.47942l-40 40v64h128l40-40v-200z" fill="#ffceb6"/><path d="m128 64h320v384h-320z" fill="#c78640"/><path d="m160 96h256v320h-256z" fill="#e0edff"/><g fill="#aec1e8"><path d="m200 344h32v32h-32z"/><path d="m200 280h32v32h-32z"/><path d="m200 216h32v32h-32z"/><path d="m200 152h32v32h-32z"/></g><path d="m312 304 56 56v24h120v-39.667a136 136 0 0 0 -39.83348-96.16652l-56.16652-56.16648h-63.43146a40 40 0 0 0 -28.28427 11.71573l-34.91169 34.91169a32 32 0 0 0 -9.37258 22.62741v42.74517z" fill="#ffceb6"/><path d="m424 182.63a22.61572 22.61572 0 0 1 -6.62988 16l-145.37012 145.37-32-32 145.37012-145.37a22.62988 22.62988 0 0 1 38.62988 16z" fill="#ef5e3b"/><path d="m240 312-16 48 48-16z" fill="#ffceb6"/><path d="m368 384h120v112h-120z" fill="#548aff"/><path d="m96 344 41.37259-41.37259a22.6274 22.6274 0 0 1 16-6.62741 22.62739 22.62739 0 0 1 22.62741 22.62739 22.6274 22.6274 0 0 1 -6.62741 16l-41.37259 41.37261v14.7018a35.09937 35.09937 0 0 1 -24 33.2982h-8z" fill="#ffceb6"/><path d="m416 256h-66.74517a32 32 0 0 0 -22.62741 9.37258l-32 32a22.6274 22.6274 0 0 0 -6.62741 16 22.62739 22.62739 0 0 0 22.62738 22.62742 22.6274 22.6274 0 0 0 16-6.62741l25.37261-25.37259a53.89622 53.89622 0 0 0 44.84436 24h19.15564z" fill="#ffceb6"/><path d="m359.029 185.373h33.941v45.255h-33.941z" fill="#ffb401" transform="matrix(.707 -.707 .707 .707 -36.95 326.794)"/><path d="m200 64 24 56h128l24-56z" fill="#ffc431"/><path d="m256 64 10.05776-25.14439a23.63248 23.63248 0 0 1 21.94224-14.85561 23.63248 23.63248 0 0 1 21.94222 14.85561l10.05778 25.14439z" fill="#ffb401"/><path d="m424 182.63a22.61572 22.61572 0 0 1 -6.62988 16l-13.37012 13.37-32-32 13.37012-13.37a22.62988 22.62988 0 0 1 38.62988 16z" fill="#ffc431"/><path d="m419.31421 208.00024 3.71606-3.71606a30.6276 30.6276 0 0 0 -43.31445-43.31348l-23.0293 23.0293h-28.11816a47.689 47.689 0 0 0 -33.94136 14.05908l-34.9102 34.91113a39.734 39.734 0 0 0 -11.7168 28.28467v31.43112l-8 8v-20.686a8.00008 8.00008 0 0 0 -8-8h-32a8.00008 8.00008 0 0 0 -8 8v32a8.00008 8.00008 0 0 0 8 8h28.90015l-5.33326 16h-23.56689a8.00008 8.00008 0 0 0 -8 8v32a8.00008 8.00008 0 0 0 8 8h32a8.00008 8.00008 0 0 0 8-8v-12.90063l16-5.33326v10.23389h32v-16h-14.70166l1.23193-.41064a8.0039 8.0039 0 0 0 3.127-1.93262l13.04931-13.04932a30.57094 30.57094 0 0 0 41.28638-1.30054l28.00704 28.00712v132.686h16v-104h104v104h16v-151.667a143.05875 143.05875 0 0 0 -42.17578-101.82324zm-70.05933 39.99976a39.74371 39.74371 0 0 0 -28.28515 11.71582l-32 32a30.59276 30.59276 0 0 0 -7.37867 31.37915l-9.59082 9.59131-20.68652-20.68652 96.68628-96.68567 20.686 20.68591-12 12zm-105.75879 78.81006 13.6941 13.69409-20.54078 6.84692zm136.50391-102.1239-20.686-20.686 12.68628-12.68591 20.686 20.686zm21.37305-56.68616a14.62758 14.62758 0 0 1 10.34277 24.9707l-7.71558 7.71558-20.686-20.686 7.71606-7.71606a14.529 14.529 0 0 1 10.34275-4.28422zm-137.37305 93.25488a23.83777 23.83777 0 0 1 7.03027-16.9707l34.91016-34.91113a31.793 31.793 0 0 1 22.62793-9.37305h12.11816l-76.68652 76.68616zm-40 42.74512h-16v-16h16zm-16 64v-16h10.23364l-1.82348 5.47021a8.0001 8.0001 0 0 0 7.58984 10.52979zm272 8h-104v-16a8.00035 8.00035 0 0 0 -2.34277-5.65674l-30.34323-30.34338 7.98-7.97986a61.75463 61.75463 0 0 0 45.55073 19.97998h19.15527v-16h-19.15527a45.80548 45.80548 0 0 1 -38.18848-20.4375 8.00026 8.00026 0 0 0 -12.31348-1.21924l-25.373 25.37256a14.62724 14.62724 0 0 1 -20.68555-20.68652l31.999-31.99951a23.84779 23.84779 0 0 1 16.97166-7.02979h58.74512v-16h-28.686l28.68628-28.68591 34.50953 34.50915a127.1621 127.1621 0 0 1 37.49019 90.50976z"/><path d="m456 208v-144a8.00008 8.00008 0 0 0 -8-8h-122.58374l-8.04614-20.11572a31.63274 31.63274 0 0 0 -58.74024 0l-8.04614 20.11572h-122.58374a8.00008 8.00008 0 0 0 -8 8v180.37036l-50.34082 44.04712a39.99989 39.99989 0 0 0 -13.65918 30.10303v62.16549l-37.65723 37.65726 11.31446 11.31348 40-40a8.00035 8.00035 0 0 0 2.34277-5.65674v-65.47949a24.00117 24.00117 0 0 1 8.19531-18.062l39.80469-34.82887v43.05676l-29.65723 29.65686 11.31446 11.31348 41.373-41.37256a14.62724 14.62724 0 0 1 20.68555 20.68652l-41.37305 41.37256a8.00035 8.00035 0 0 0 -2.34273 5.65674v14.70166a27.06458 27.06458 0 0 1 -18.5293 25.709l5.0586 15.17872a43.10415 43.10415 0 0 0 13.4707-7.36257v23.77319a8.00008 8.00008 0 0 0 8 8h44.686l-26.34327 26.34326 11.31446 11.31348 37.65681-37.65674h148.686v-16h-208v-60.686l16-15.99975v52.68575a8.00008 8.00008 0 0 0 8 8h184v-16h-176v-60.68555l7.03027-7.03027a30.62172 30.62172 0 0 0 -7.03027-48.55896v-187.72522h40.43872l8.20776 19.15137a8.00075 8.00075 0 0 0 7.35352 4.84863h128a8.00075 8.00075 0 0 0 7.35352-4.84863l8.20776-19.15137h40.43872v32h16v-40a8.00008 8.00008 0 0 0 -8-8h-41.58154l6.85693-16h58.72461v136zm-182.51465-166.17334a15.6329 15.6329 0 0 1 29.0293 0l5.66919 14.17334h-40.36768zm-113.48535 46.17334a8.00008 8.00008 0 0 0 -8 8v192.03345a30.35049 30.35049 0 0 0 -16 5.36975v-221.4032h58.72461l6.85693 16zm186.72461 24h-117.44922l-17.14282-40h151.73486z"/><path d="m240 152a8.00008 8.00008 0 0 0 -8-8h-32a8.00008 8.00008 0 0 0 -8 8v32a8.00008 8.00008 0 0 0 8 8h32a8.00008 8.00008 0 0 0 8-8zm-16 24h-16v-16h16z"/><path d="m232 208h-32a8.00008 8.00008 0 0 0 -8 8v32a8.00008 8.00008 0 0 0 8 8h32a8.00008 8.00008 0 0 0 8-8v-32a8.00008 8.00008 0 0 0 -8-8zm-8 32h-16v-16h16z"/><path d="m288 160h48v16h-48z"/><path d="m256 160h16v16h-16z"/><path d="m304 352h32v16h-32z"/></svg>